# xmcd CD database file
#
# Track frame offsets:
#	150
#	25204
#	50163
#	76526
#
# Disc length: 3761 seconds
#
# Revision: 0
# Processed by: cddbd v1.5.2PL0 Copyright (c) Steve Scherf et al.
# Submitted via: CDex 1.70beta2
#
DISCID=250eaf04
DTITLE=Nicolas Jeandot - Ascension
DYEAR=2004
DGENRE=New Age
TTITLE0=Ascension 1
TTITLE1=Ascension 2
TTITLE2=Ascension 3
TTITLE3=Visualisation
EXTD=YEAR: 2004
EXTT0=
EXTT1=
EXTT2=
EXTT3=
PLAYORDER=
